<?xml version="1.0" standalone="no"?>
<!DOCTYPE svg PUBLIC "-//W3C//DTD SVG 20010904//EN"
 "http://www.w3.org/TR/2001/REC-SVG-20010904/DTD/svg10.dtd">
<svg version="1.0" xmlns="http://www.w3.org/2000/svg"
 width="512.000000pt" height="512.000000pt" viewBox="0 0 512.000000 512.000000"
 preserveAspectRatio="xMidYMid meet">

<g transform="translate(0.000000,512.000000) scale(0.100000,-0.100000)"
fill="#000000" stroke="none">
<path d="M3349 3134 c-23 -28 1 -49 56 -49 34 0 51 5 58 17 17 27 -9 48 -58
48 -27 0 -47 -6 -56 -16z"/>
<path d="M3594 3136 c-3 -8 -4 -23 -2 -33 3 -17 25 -18 363 -21 198 -1 370 0
383 3 26 6 31 49 6 59 -9 3 -180 6 -380 6 -308 0 -365 -2 -370 -14z"/>
<path d="M10 2925 c-21 -25 4 -298 46 -492 103 -484 367 -950 751 -1323 149
-146 242 -222 413 -335 312 -208 642 -341 1007 -407 172 -30 565 -33 738 -5
531 87 1029 340 1429 727 319 308 542 646 685 1037 l41 113 -1 147 0 148 -26
-110 c-154 -675 -609 -1287 -1237 -1661 -314 -188 -655 -305 -1005 -345 -155
-17 -475 -7 -631 21 -792 140 -1517 687 -1891 1427 -146 289 -229 588 -254
916 l-7 87 165 0 c186 0 177 4 177 -84 0 -68 31 -248 65 -381 184 -718 737
-1310 1440 -1544 237 -79 441 -112 690 -113 351 -1 659 71 975 228 516 256
905 688 1104 1227 66 177 105 357 131 610 l6 57 150 0 149 0 0 35 0 35 -1541
0 -1541 0 -214 -145 -213 -145 -105 0 -104 0 -71 -77 -70 -76 -87 33 c-47 19
-91 41 -96 50 -6 8 -38 92 -72 185 l-63 170 -460 3 c-398 2 -462 0 -473 -13z
m604 -71 c3 -9 6 -35 6 -59 0 -63 36 -265 67 -375 62 -225 176 -456 317 -648
97 -133 310 -345 436 -434 357 -253 750 -381 1170 -381 666 0 1289 336 1663
896 164 244 283 559 316 837 7 52 14 114 17 138 l5 42 70 0 c79 0 74 11 59
-125 -73 -653 -421 -1224 -967 -1582 -252 -166 -557 -281 -868 -329 -149 -23
-441 -23 -590 0 -540 84 -1028 361 -1358 771 -284 352 -441 743 -482 1198 l-6
67 70 0 c54 0 70 -4 75 -16z m338 -161 l65 -178 126 -53 c69 -28 131 -50 138
-46 8 3 46 41 84 85 l70 79 93 -6 94 -7 223 152 223 151 1236 0 1236 0 -5 -42
c-20 -179 -31 -245 -56 -343 -206 -816 -910 -1404 -1742 -1454 -259 -15 -493
15 -734 94 -726 239 -1246 894 -1311 1653 l-8 92 102 0 101 0 65 -177z"/>
<path d="M1911 2435 c-34 -39 -38 -54 -19 -73 20 -20 45 -14 72 19 28 33 33
58 14 77 -19 19 -34 14 -67 -23z"/>
<path d="M3242 2458 c-18 -18 -15 -38 14 -75 26 -34 51 -42 72 -21 20 20 14
42 -21 76 -36 35 -47 38 -65 20z"/>
<path d="M2341 2209 c-16 -47 -13 -77 8 -88 25 -14 47 5 59 50 12 44 0 69 -33
69 -17 0 -26 -8 -34 -31z"/>
<path d="M2813 2225 c-9 -25 5 -89 23 -102 12 -9 22 -9 37 -2 16 9 19 18 13
56 -3 24 -8 49 -12 54 -9 15 -54 10 -61 -6z"/>
<path d="M3687 2039 c-9 -6 -17 -20 -17 -32 0 -30 81 -110 106 -105 31 6 28
45 -6 88 -39 49 -60 61 -83 49z"/>
<path d="M1457 1996 c-42 -50 -47 -81 -16 -91 30 -10 111 70 107 105 -2 18
-10 26 -29 28 -20 2 -34 -7 -62 -42z"/>
<path d="M2192 1653 c-5 -10 -14 -40 -21 -66 -13 -54 -4 -77 29 -77 25 0 36
17 50 78 10 41 10 56 0 67 -17 20 -47 19 -58 -2z"/>
<path d="M2970 1655 c-10 -11 -10 -26 0 -67 7 -29 17 -59 23 -65 13 -18 54
-16 61 2 7 19 -12 115 -26 133 -14 16 -43 15 -58 -3z"/>
<path d="M196 1554 c-10 -26 21 -74 48 -74 31 0 40 24 21 61 -17 32 -58 40
-69 13z"/>
<path d="M327 1363 c-16 -15 -3 -41 61 -127 87 -115 240 -285 319 -353 62 -54
96 -66 107 -37 5 12 -33 57 -137 163 -78 80 -180 194 -226 254 -76 99 -104
121 -124 100z"/>
</g>
</svg>
